<svg width="19" height="19" viewBox="0 0 19 19" fill="none" xmlns="http://www.w3.org/2000/svg">
<path d="M15.5833 2.74287C14.7429 1.89397 13.7419 1.2209 12.6387 0.762919C11.5354 0.304937 10.352 0.0712106 9.1575 0.075372C4.1525 0.075372 0.0733335 4.15454 0.0733335 9.15954C0.0733335 10.7637 0.495 12.322 1.28333 13.697L0 18.4087L4.8125 17.1437C6.14167 17.8679 7.63583 18.2529 9.1575 18.2529C14.1625 18.2529 18.2417 14.1737 18.2417 9.1687C18.2417 6.73954 17.2975 4.45704 15.5833 2.74287ZM9.1575 16.7129C7.80083 16.7129 6.47167 16.3462 5.3075 15.6587L5.0325 15.4937L2.1725 16.2454L2.93333 13.4587L2.75 13.1745C1.99627 11.9709 1.59605 10.5797 1.595 9.15954C1.595 4.99787 4.98667 1.60621 9.14833 1.60621C11.165 1.60621 13.0625 2.39454 14.4833 3.82454C15.1869 4.52484 15.7444 5.35781 16.1236 6.27518C16.5028 7.19254 16.6962 8.17605 16.6925 9.1687C16.7108 13.3304 13.3192 16.7129 9.1575 16.7129ZM13.3008 11.0662C13.0717 10.9562 11.9533 10.4062 11.7517 10.3237C11.5408 10.2504 11.3942 10.2137 11.2383 10.4337C11.0825 10.6629 10.6517 11.1762 10.5233 11.3229C10.395 11.4787 10.2575 11.497 10.0283 11.3779C9.79917 11.2679 9.06583 11.0204 8.20417 10.2504C7.52583 9.64537 7.07667 8.90287 6.93917 8.67371C6.81083 8.44454 6.92083 8.32537 7.04 8.20621C7.14083 8.10537 7.26917 7.94037 7.37917 7.81204C7.48917 7.6837 7.535 7.58287 7.60833 7.4362C7.68167 7.28037 7.645 7.15204 7.59 7.04204C7.535 6.93204 7.07667 5.81371 6.89333 5.35537C6.71 4.91537 6.5175 4.97037 6.38 4.96121H5.94C5.78417 4.96121 5.54583 5.01621 5.335 5.24537C5.13333 5.47454 4.54667 6.02454 4.54667 7.14287C4.54667 8.26121 5.3625 9.34287 5.4725 9.48954C5.5825 9.64537 7.07667 11.937 9.35 12.9179C9.89083 13.1562 10.3125 13.2937 10.6425 13.3945C11.1833 13.5687 11.6783 13.5412 12.0725 13.4862C12.5125 13.422 13.42 12.9362 13.6033 12.4045C13.7958 11.8729 13.7958 11.4237 13.7317 11.3229C13.6675 11.222 13.53 11.1762 13.3008 11.0662Z" fill="#29292B"/>
</svg>
